<svg width="18" height="18" viewBox="0 0 18 18" fill="none" xmlns="http://www.w3.org/2000/svg">
<g id="icon-subway">
<path id="Vector" d="M13.5 8.25H9.75V4.5H13.5M12.375 12.75C12.0766 12.75 11.7905 12.6315 11.5795 12.4205C11.3685 12.2095 11.25 11.9234 11.25 11.625C11.25 11.3266 11.3685 11.0405 11.5795 10.8295C11.7905 10.6185 12.0766 10.5 12.375 10.5C12.6734 10.5 12.9595 10.6185 13.1705 10.8295C13.3815 11.0405 13.5 11.3266 13.5 11.625C13.5 11.9234 13.3815 12.2095 13.1705 12.4205C12.9595 12.6315 12.6734 12.75 12.375 12.75ZM8.25 8.25H4.5V4.5H8.25M5.625 12.75C5.32663 12.75 5.04048 12.6315 4.8295 12.4205C4.61853 12.2095 4.5 11.9234 4.5 11.625C4.5 11.3266 4.61853 11.0405 4.8295 10.8295C5.04048 10.6185 5.32663 10.5 5.625 10.5C5.92337 10.5 6.20952 10.6185 6.4205 10.8295C6.63147 11.0405 6.75 11.3266 6.75 11.625C6.75 11.9234 6.63147 12.2095 6.4205 12.4205C6.20952 12.6315 5.92337 12.75 5.625 12.75ZM9 1.5C5.685 1.5 3 1.875 3 4.5V11.625C3 12.3212 3.27656 12.9889 3.76884 13.4812C4.26113 13.9734 4.92881 14.25 5.625 14.25L4.5 15.375V15.75H13.5V15.375L12.375 14.25C13.0712 14.25 13.7389 13.9734 14.2312 13.4812C14.7234 12.9889 15 12.3212 15 11.625V4.5C15 1.875 12.315 1.5 9 1.5Z" fill="#4B5563"/>
</g>
</svg>
