<svg width="17" height="17" viewBox="0 0 17 17" fill="none" xmlns="http://www.w3.org/2000/svg">
<g id="Group">
<path id="Vector" d="M2.03697 13.903C2.16297 14.141 2.55097 14.686 3.09697 14.963L1.52997 16.53C1.46131 16.6037 1.37851 16.6628 1.28651 16.7038C1.19451 16.7448 1.0952 16.7668 0.994493 16.7686C0.89379 16.7704 0.793761 16.7518 0.700373 16.7141C0.606985 16.6764 0.522151 16.6202 0.450932 16.549C0.379713 16.4778 0.323569 16.393 0.285848 16.2996C0.248127 16.2062 0.229602 16.1062 0.231379 16.0055C0.233156 15.9048 0.255198 15.8054 0.29619 15.7134C0.337182 15.6214 0.396284 15.5386 0.469971 15.47L2.03697 13.903Z" fill="#3AD291"/>
<path id="Vector_2" d="M3.09696 14.964C4.92496 15.961 6.70796 16.399 8.37196 16.29C10.198 16.17 11.819 15.393 13.13 14.082C15.729 11.483 17.073 6.842 16.685 1.015C16.673 0.833548 16.5955 0.662626 16.4669 0.534042C16.3383 0.405458 16.1674 0.32797 15.986 0.315999C10.16 -0.0720008 5.51696 1.272 2.91996 3.87C1.60996 5.181 0.831956 6.803 0.711956 8.63C0.601956 10.292 1.04096 12.076 2.03796 13.903L6.56996 9.37C6.63862 9.29631 6.72142 9.23721 6.81342 9.19622C6.90542 9.15523 7.00473 9.13318 7.10543 9.13141C7.20614 9.12963 7.30616 9.14816 7.39955 9.18588C7.49294 9.2236 7.57778 9.27974 7.64899 9.35096C7.72021 9.42218 7.77636 9.50701 7.81408 9.6004C7.8518 9.69379 7.87032 9.79382 7.86855 9.89452C7.86677 9.99522 7.84473 10.0945 7.80374 10.1865C7.76274 10.2785 7.70364 10.3613 7.62996 10.43L3.09696 14.964Z" fill="#3AD291"/>
</g>
</svg>
